<?xml version="1.0"?>
<svg xmlns="http://www.w3.org/2000/svg" id="Layer_1" enable-background="new 0 0 512 512" height="512px" viewBox="0 0 512 512" width="512px"><g><g><path d="m489.5 467h-44v-235h2.5c7.444 0 13.5-6.056 13.5-13.5v-18c0-7.444-6.056-13.5-13.5-13.5h-31.615c-4.143 0-7.5 3.357-7.5 7.5s3.357 7.5 7.5 7.5h30.115v15h-381v-15h318.27c4.143 0 7.5-3.357 7.5-7.5s-3.357-7.5-7.5-7.5h-25.27v-179.5c0-4.143-3.357-7.5-7.5-7.5h-190c-4.143 0-7.5 3.357-7.5 7.5v179.5h-89.5c-7.444 0-13.5 6.056-13.5 13.5v18c0 7.444 6.056 13.5 13.5 13.5h2.5v24c0 4.143 3.357 7.5 7.5 7.5s7.5-3.357 7.5-7.5v-24h349v235h-349v-178.923c0-4.143-3.357-7.5-7.5-7.5s-7.5 3.357-7.5 7.5v178.923h-44c-12.406 0-22.5 10.094-22.5 22.5s10.094 22.5 22.5 22.5h467c12.406 0 22.5-10.094 22.5-22.5s-10.094-22.5-22.5-22.5zm-226-317.943v-22.288h80v22.288zm-95-37.288v-22.289h37.223v22.288h-37.223zm52.223-22.289h70.555v22.288h-70.555zm122.777 0v22.288h-37.223v-22.288zm0-15h-80v-22.288h80zm-122.777-37.288v-22.192h70.555v22.192zm27.777 15v22.288h-80v-22.288zm-80 74.577h80v22.288h-80zm87.152 37.288c.116.005.231.018.348.018s.232-.012.348-.018h34.929v22.943h-70.555v-22.943zm50.625 22.943v-22.943h37.223v22.943zm37.223-149.808h-37.223v-22.192h37.223zm-137.777-22.192v22.192h-37.223v-22.192zm-37.223 149.057h37.223v22.943h-37.223zm321 332.943h-467c-4.136 0-7.5-3.364-7.5-7.5s3.364-7.5 7.5-7.5h467c4.136 0 7.5 3.364 7.5 7.5s-3.364 7.5-7.5 7.5z" fill="#CC8500"/><path d="m350.5 384.878v-17.995c0-35.226-28.657-63.883-63.883-63.883h-61.234c-35.226 0-63.883 28.657-63.883 63.883v17.995c0 6.133 4.989 11.122 11.122 11.122h166.756c6.133 0 11.122-4.989 11.122-11.122zm-15-3.878h-159v-14.117c0-26.954 21.929-48.883 48.883-48.883h61.234c26.954 0 48.883 21.929 48.883 48.883z" fill="#CC8500"/><path d="m320.795 426h40.344c10.676 0 19.361-8.686 19.361-19.361v-39.756c0-51.768-42.115-93.883-93.883-93.883h-61.234c-51.768 0-93.883 42.115-93.883 93.883v39.756c0 10.676 8.686 19.361 19.361 19.361h136.498c4.143 0 7.5-3.357 7.5-7.5s-3.357-7.5-7.5-7.5h-136.498c-2.405 0-4.361-1.956-4.361-4.361v-39.756c0-43.496 35.387-78.883 78.883-78.883h61.234c43.496 0 78.883 35.387 78.883 78.883v39.756c0 2.405-1.956 4.361-4.361 4.361h-40.344c-4.143 0-7.5 3.357-7.5 7.5s3.357 7.5 7.5 7.5z" fill="#CC8500"/></g></g></svg>
