<?xml version="1.0" encoding="iso-8859-1"?>
<!-- Generator: Adobe Illustrator 19.0.0, SVG Export Plug-In . SVG Version: 6.00 Build 0)  -->
<svg xmlns="http://www.w3.org/2000/svg" xmlns:xlink="http://www.w3.org/1999/xlink" version="1.1" id="Capa_1" x="0px" y="0px" viewBox="0 0 512 512" style="enable-background:new 0 0 512 512;" xml:space="preserve" width="512px" height="512px">
<g>
	<g>
		<path d="M509.804,346.742l-15.722-15.734c7.827-24.572,11.911-50.47,11.921-76.999c0.025-65.765-24.882-127.703-70.241-175.038    c-0.049-0.051-0.098-0.102-0.148-0.152c-1.204-1.254-2.413-2.505-3.645-3.738C384.2,27.277,320.677,0.936,253.097,0.911    C185.518,0.885,121.975,27.178,74.17,74.946c-1.231,1.23-2.438,2.477-3.64,3.727c-0.058,0.057-0.114,0.116-0.17,0.174    C29.915,120.996,5.716,174.753,0.906,232.493C0.529,233.388,0.002,248.261,0,253.817c-0.026,67.579,26.267,131.123,74.034,178.927    c47.768,47.805,111.293,74.145,178.871,74.171c31.93,0.012,62.956-5.859,91.85-17.086l19.047,19.061    c1.465,1.465,3.386,2.199,5.306,2.2c1.92,0.001,3.841-0.731,5.308-2.196c2.932-2.93,2.933-7.681,0.004-10.614l-14.789-14.801    c26.498-12.327,50.913-29.327,72.202-50.6c0.226-0.226,0.444-0.458,0.669-0.685l13.545,13.556c1.465,1.465,3.386,2.199,5.306,2.2    c1.92,0.001,3.841-0.731,5.308-2.196c2.932-2.93,2.933-7.681,0.004-10.614l-13.899-13.909    c19.693-22.274,35.086-47.464,45.749-74.558l10.67,10.678c1.465,1.465,3.386,2.199,5.306,2.2c1.92,0.001,3.841-0.731,5.308-2.196    C512.732,354.426,512.734,349.675,509.804,346.742z M489.601,228.084l-77.371-0.029c2.136-3.011,3.303-6.591,3.304-10.357    c0.002-4.696-1.797-9.112-5.051-12.483l75.545,0.029C487.582,212.763,488.776,220.383,489.601,228.084z M482.427,190.233    l-86.926-0.033l-22.829-22.847l102.167,0.039C477.75,174.863,480.289,182.482,482.427,190.233z M455.932,129.434    c4.578,7.434,8.744,15.088,12.455,22.947l-110.719-0.042l-22.829-22.847l119.904,0.045    C455.149,129.537,455.544,129.496,455.932,129.434z M445.951,114.525l-126.115-0.047l-22.829-22.847l130.107,0.049    C433.904,98.955,440.189,106.584,445.951,114.525z M260.597,16.052c33.202,1.034,65.233,8.83,94.501,22.746l-94.51-0.036    L260.597,16.052z M260.582,53.771l121.387,0.046c10.456,6.769,20.436,14.394,29.849,22.849l-129.815-0.049l-21.422-21.438    L260.582,53.771z M272.462,88.303c0.542,0.806,1.236,1.5,2.041,2.043l74.181,74.237c0.32,0.392,0.678,0.75,1.07,1.07l36.592,36.62    c0.395,0.513,0.854,0.973,1.367,1.369l11.941,11.95c1.158,1.157,1.157,3.04-0.002,4.197l-12.659,12.65    c-0.39,0.264-0.762,0.564-1.107,0.909c-0.345,0.345-0.647,0.717-0.911,1.107l-12.658,12.649c-1.157,1.158-3.04,1.156-4.197-0.002    l-54.686-54.727c-0.006-0.006-0.012-0.011-0.017-0.017l-37.813-37.841c-0.007-0.008-0.015-0.015-0.022-0.022l-37.818-37.847    c-0.002-0.002-0.005-0.005-0.007-0.007l-23.918-23.936c-1.157-1.158-1.156-3.041,0.001-4.198l27.335-27.315    c0.579-0.579,1.339-0.868,2.099-0.868c0.759,0,1.519,0.29,2.098,0.869L272.462,88.303z M222.084,303.677l-22.829-22.847    l39.893,0.015l6.336,6.341l-0.006,16.499L222.084,303.677z M245.473,318.694l-0.003,8.385l-8.382-8.388L245.473,318.694z     M201.315,242.984l22.829,22.847l-39.893-0.015l-22.829-22.847L201.315,242.984z M146.419,227.954l-22.83-22.848l39.893,0.015    l22.83,22.848L146.419,227.954z M143.049,163.438c-1.157-1.157-1.157-3.039,0.001-4.196l27.337-27.316    c0.757-0.756,1.639-0.869,2.098-0.869s1.342,0.114,2.098,0.871l32.022,32.046c0.541,0.804,1.234,1.497,2.038,2.039l74.744,74.8    c0.001,0.001,0.003,0.003,0.004,0.004l37.826,37.854c0.003,0.003,0.006,0.006,0.009,0.009l7.64,7.646    c1.158,1.16,1.158,3.042-0.001,4.199l-12.657,12.647c-0.391,0.264-0.764,0.566-1.111,0.911c-0.347,0.346-0.649,0.72-0.913,1.111    l-12.656,12.646c-1.157,1.157-3.039,1.156-4.196-0.002L143.049,163.438z M216.143,152.286l-22.83-22.847l36.027,0.014    l16.198,16.21l-0.003,6.634L216.143,152.286z M245.53,167.305l-0.006,14.384L231.147,167.3L245.53,167.305z M260.53,190.15    l0.009-22.838l6.634,0.002l22.829,22.847L260.53,190.15z M305.006,205.176l22.83,22.848l-36.026-0.014l-22.83-22.848    L305.006,205.176z M260.438,432.242l26.785,0.01l22.829,22.847l-49.623-0.019L260.438,432.242z M260.444,417.233l0.005-11.776    l11.771,11.78L260.444,417.233z M271.415,356.551l85.534,0.032l22.829,22.847l-118.605-0.045l5.579-5.574    C271.424,369.142,272.967,362.525,271.415,356.551z M260.473,341.538l0.009-22.838l16.499,0.006l9.735,9.742    c3.504,3.505,8.106,5.259,12.71,5.261c4.603,0.002,9.207-1.749,12.714-5.251l8.359-8.353l21.448,21.464L260.473,341.538z     M343.064,280.884l79.743,0.03l22.829,22.847l-108.741-0.041l2.58-2.578C344.948,295.673,346.131,287.532,343.064,280.884z     M329.643,265.87l-22.83-22.847l36.026,0.014l14.664,14.676c3.504,3.505,8.106,5.259,12.71,5.261    c4.603,0.002,9.207-1.749,12.714-5.251l8.359-8.352l16.517,16.53L329.643,265.87z M217.038,53.754l10.342,0.004l-5.173,5.169    L217.038,53.754z M245.587,16.045l-0.008,22.711l-43.544-0.017l-0.914-0.915c-2.927-2.933-7.679-2.933-10.613-0.005    c-0.288,0.287-0.539,0.596-0.77,0.915l-38.669-0.015C180.348,24.825,212.385,17.054,245.587,16.045z M124.186,53.719l71.626,0.027    l15.778,15.791l-7.055,7.05L94.32,76.545C103.74,68.097,113.725,60.479,124.186,53.719z M79.013,91.549l119.005,0.045    c0.233,4.267,1.954,8.466,5.204,11.72l11.116,11.124l-78.161-0.03l-5.844-5.849c-2.929-2.932-7.681-2.934-10.613-0.005    c-1.604,1.603-2.325,3.75-2.175,5.846l-57.385-0.022C65.927,106.443,72.217,98.819,79.013,91.549z M50.166,129.282    c0.388,0.062,0.783,0.103,1.188,0.103l78.6,0.03l10.848,10.857l-8.36,8.353c-1.109,1.108-2.022,2.335-2.78,3.628l-91.968-0.035    C41.41,144.362,45.582,136.711,50.166,129.282z M31.231,167.224l96.968,0.037c0.861,2.478,2.259,4.81,4.234,6.787l16.047,16.059    l-41.839-0.016c-4.389-1.811-9.352-1.813-13.743-0.005l-26.446-0.01l-8.842-8.849c-2.93-2.931-7.681-2.932-10.614-0.004    c-2.396,2.395-2.832,6.004-1.314,8.845l-22.055-0.008C25.769,182.31,28.314,174.693,31.231,167.224z M20.014,205.066l40.212,0.016    l7.852,7.858l-8.359,8.353c-1.935,1.934-3.316,4.208-4.184,6.626l-39.112-0.015C17.255,220.203,18.454,212.584,20.014,205.066z     M15.008,253.824c0.001-3.65,0.094-7.287,0.258-10.91l41.572,0.015c0.773,1.353,1.717,2.634,2.87,3.788l19.044,19.059    l-63.456-0.024C15.103,261.793,15.007,257.816,15.008,253.824z M16.514,280.761l77.242,0.029l22.829,22.847L20.19,303.6    C18.601,296.083,17.373,288.463,16.514,280.761z M23.872,318.61l107.717,0.041l22.829,22.847l-122.846-0.047    C28.621,333.982,26.048,326.362,23.872,318.61z M38.109,356.463l131.312,0.05l22.829,22.847l-141.615-0.054    C46.032,371.909,41.85,364.287,38.109,356.463z M245.407,491.773c-32.372-1.008-63.627-8.455-92.298-21.725l92.306,0.035    L245.407,491.773z M245.421,455.075l-119.822-0.046c-10.602-6.745-20.714-14.382-30.262-22.849l150.093,0.057L245.421,455.075z     M245.436,417.228l-165.598-0.063c-6.864-7.27-13.218-14.901-19.047-22.846l146.463,0.055l6.738,6.743    c3.504,3.505,8.106,5.259,12.71,5.261c4.603,0.002,9.207-1.749,12.714-5.251l6.028-6.024L245.436,417.228z M256.141,363.194    l-6.518,6.513c-1.465,0.727-2.655,1.917-3.384,3.381l-2.755,2.754c-0.391,0.264-0.764,0.565-1.111,0.911s-0.649,0.72-0.913,1.111    l-12.656,12.646c-1.157,1.157-3.039,1.156-4.196-0.002l-7.897-7.906c-0.513-0.74-1.155-1.383-1.895-1.896L70.326,236.107    c-1.157-1.157-1.157-3.039,0.002-4.196l13.659-13.648c0.003-0.003,0.007-0.006,0.01-0.009c0.003-0.003,0.006-0.007,0.009-0.01    l13.157-13.147l5.198,0.002l35.631,35.658c0.003,0.003,0.007,0.007,0.01,0.01l108.736,108.818    c0.541,0.804,1.234,1.497,2.037,2.039l7.368,7.374C257.301,360.155,257.3,362.037,256.141,363.194z M260.416,491.779l0.008-21.69    l64.632,0.025l8.036,8.042C309.994,486.387,285.538,491.016,260.416,491.779z M348.287,472.125l-2.004-2.004l6.447,0.002    C351.255,470.804,349.775,471.475,348.287,472.125z M380.252,455.125l-48.972-0.019l-22.829-22.847l102.08,0.039    C400.977,440.759,390.859,448.388,380.252,455.125z M293.447,417.245l-22.83-22.848l124.164,0.047l22.83,22.848L293.447,417.245z     M432.138,410.595l-16.129-16.142l29.098,0.011C441.038,400,436.712,405.38,432.138,410.595z M455.272,379.459l-54.267-0.021    l-22.829-22.847l89.639,0.034C464.069,364.447,459.881,372.066,455.272,379.459z M474.365,341.619l-111.192-0.042l-22.829-22.847    l120.296,0.046l16.233,16.245C476.072,337.234,475.231,339.432,474.365,341.619z M482.035,318.951l-0.167-0.167h0.215    C482.067,318.84,482.05,318.895,482.035,318.951z M485.776,303.777l-18.911-0.007l-22.83-22.847l45.434,0.017    C488.604,288.642,487.37,296.26,485.776,303.777z M490.697,265.931l-61.666-0.023l-22.829-22.847l84.542,0.032    c0.161,3.623,0.251,7.26,0.25,10.91C490.992,257.995,490.893,261.972,490.697,265.931z" fill="#CC8500"/>
	</g>
</g>
<g>
</g>
<g>
</g>
<g>
</g>
<g>
</g>
<g>
</g>
<g>
</g>
<g>
</g>
<g>
</g>
<g>
</g>
<g>
</g>
<g>
</g>
<g>
</g>
<g>
</g>
<g>
</g>
<g>
</g>
</svg>
